<svg preserveAspectRatio="none" width="100%" height="100%" overflow="visible" style="display: block;" viewBox="0 0 16.2497 16.2497" fill="none" xmlns="http://www.w3.org/2000/svg">
<path id="Vector" d="M15.3125 10.5309L11.6336 8.88169L11.6195 8.87544C11.3804 8.77235 11.1192 8.73084 10.8599 8.75473C10.6006 8.77861 10.3514 8.86712 10.1352 9.01216C10.1048 9.03245 10.0756 9.05436 10.0477 9.07778L8.30469 10.5622C7.28907 10.0114 6.23985 8.97075 5.68829 7.96763L7.17735 6.19731C7.20129 6.16874 7.22346 6.13874 7.24376 6.10747C7.38499 5.89197 7.47074 5.64488 7.49337 5.38821C7.51599 5.13155 7.4748 4.87327 7.37344 4.63638C7.37104 4.63184 7.36895 4.62714 7.36719 4.62231L5.71876 0.937157C5.58344 0.628972 5.35251 0.372538 5.06013 0.205805C4.76775 0.0390714 4.42946 -0.0291012 4.09532 0.0113757C2.96123 0.160355 1.92015 0.717058 1.16652 1.57751C0.412886 2.43797 -0.00176688 3.54333 5.65943e-06 4.68716C5.65943e-06 11.0629 5.18672 16.2497 11.5625 16.2497C12.7063 16.2514 13.8117 15.8368 14.6722 15.0831C15.5326 14.3295 16.0893 13.2884 16.2383 12.1543C16.2788 11.8202 16.2106 11.4819 16.0439 11.1895C15.8771 10.8972 15.6207 10.6662 15.3125 10.5309ZM11.5625 14.3747C8.99417 14.3716 6.53192 13.3499 4.71583 11.5338C2.89975 9.71774 1.87811 7.25549 1.87501 4.68716C1.87322 4.03989 2.09296 3.41149 2.49772 2.90639C2.90249 2.40129 3.4679 2.04989 4.10001 1.91059L5.57032 5.19184L4.07344 6.97466C4.04925 7.00349 4.02681 7.03375 4.00626 7.06528C3.85872 7.29071 3.77197 7.55047 3.75445 7.81932C3.73693 8.08817 3.78922 8.35698 3.90626 8.59966C4.64219 10.1059 6.1586 11.6122 7.68047 12.3497C7.92477 12.4655 8.19494 12.5159 8.46457 12.4961C8.7342 12.4762 8.99406 12.3867 9.21876 12.2364C9.24897 12.216 9.27793 12.1938 9.30547 12.17L11.0578 10.6801L14.3391 12.1497C14.1998 12.7818 13.8484 13.3472 13.3433 13.7519C12.8382 14.1567 12.2098 14.3764 11.5625 14.3747Z" fill="var(--fill-0, #389656)"/>
</svg>
