<svg preserveAspectRatio="none" width="100%" height="100%" overflow="visible" style="display: block;" viewBox="0 0 12.0026 12.0031" fill="none" xmlns="http://www.w3.org/2000/svg">
<path id="Vector" d="M11.7826 6.78309L6.78255 11.7831C6.71279 11.8529 6.62996 11.9082 6.53881 11.946C6.44766 11.9837 6.34996 12.0031 6.2513 12.0031C6.15264 12.0031 6.05494 11.9837 5.96379 11.946C5.87264 11.9082 5.78982 11.8529 5.72005 11.7831C5.65029 11.7133 5.59495 11.6305 5.55719 11.5394C5.51943 11.4482 5.5 11.3505 5.5 11.2518C5.5 11.1532 5.51943 11.0555 5.55719 10.9643C5.59495 10.8732 5.65029 10.7904 5.72005 10.7206L10.7201 5.72059C10.7898 5.65083 10.8726 5.59549 10.9638 5.55773C11.0549 5.51997 11.1526 5.50054 11.2513 5.50054C11.35 5.50054 11.4477 5.51997 11.5388 5.55773C11.63 5.59549 11.7128 5.65083 11.7826 5.72059C11.8523 5.79036 11.9077 5.87318 11.9454 5.96433C11.9832 6.05548 12.0026 6.15318 12.0026 6.25184C12.0026 6.3505 11.9832 6.4482 11.9454 6.53935C11.9077 6.6305 11.8523 6.71333 11.7826 6.78309ZM10.7826 0.220591C10.7129 0.150671 10.6301 0.0951938 10.5389 0.0573398C10.4478 0.0194858 10.35 0 10.2513 0C10.1526 0 10.0549 0.0194858 9.96369 0.0573398C9.87252 0.0951938 9.78973 0.150671 9.72005 0.220591L0.220051 9.72059C0.0791547 9.86149 0 10.0526 0 10.2518C0 10.4511 0.0791547 10.6422 0.220051 10.7831C0.360947 10.924 0.552044 11.0031 0.751301 11.0031C0.950558 11.0031 1.14165 10.924 1.28255 10.7831L10.7826 1.28309C10.8523 1.21344 10.9076 1.13072 10.9453 1.03967C10.9831 0.948623 11.0025 0.851028 11.0025 0.752466C11.0025 0.653905 10.9831 0.55631 10.9453 0.465261C10.9076 0.374213 10.8523 0.291496 10.7826 0.221841V0.220591Z" fill="var(--fill-0, #8D9191)"/>
</svg>
